<svg width="112" height="18" viewBox="0 0 112 18" fill="none" xmlns="http://www.w3.org/2000/svg"><path d="M25.212 14.658V2.345h3.254V6.92h4.75V2.345h3.253v12.313h-3.254v-4.75h-4.749v4.75h-3.254zM38.396 3.049c0-.422.158-.774.475-1.055.316-.294.715-.44 1.196-.44.48 0 .88.146 1.196.44.317.28.475.633.475 1.055 0 .41-.158.762-.475 1.055-.317.293-.715.44-1.196.44-.48 0-.88-.147-1.196-.44a1.388 1.388 0 0 1-.475-1.055zm.176 11.609V5.511h2.99v9.147h-2.99zM44.24 13.268c-.785-.867-1.178-1.987-1.178-3.36 0-1.371.393-2.491 1.178-3.359.786-.868 1.742-1.301 2.867-1.301.81 0 1.507.234 2.094.703.27.211.48.446.633.704h.176V5.51H53V18h-8.707v-2.375h5.717v-2.374h-.176c-.164.258-.375.48-.633.668-.575.434-1.273.651-2.093.651-1.126 0-2.082-.434-2.868-1.302zm2.428-4.907c-.352.375-.528.891-.528 1.548 0 .656.176 1.172.528 1.548.352.375.82.563 1.407.563.586 0 1.055-.188 1.407-.563.352-.376.528-.892.528-1.548 0-.657-.176-1.173-.528-1.548-.352-.375-.82-.563-1.407-.563-.586 0-1.055.188-1.407.563zM54.75 14.658V2.345h2.99v4.398h.177a2.72 2.72 0 0 1 .633-.74 3.148 3.148 0 0 1 2.093-.755c1.08 0 1.917.328 2.515.985.61.645.915 1.577.915 2.796v5.629h-2.99V9.469c0-.528-.14-.938-.422-1.231-.282-.293-.669-.44-1.161-.44a1.64 1.64 0 0 0-1.267.563c-.328.363-.492.85-.492 1.46v4.837h-2.99zM70.674 18V5.511h2.99v1.232h.176c.164-.27.387-.516.669-.74.645-.503 1.33-.755 2.058-.755 1.125 0 2.081.445 2.867 1.336.785.88 1.178 2.047 1.178 3.5 0 1.455-.393 2.627-1.178 3.519-.786.88-1.742 1.319-2.867 1.319-.74 0-1.425-.246-2.058-.739a2.703 2.703 0 0 1-.669-.756h-.176V18h-2.99zm3.518-9.604c-.352.399-.528.962-.528 1.689 0 .727.176 1.29.528 1.688.352.399.82.598 1.407.598.587 0 1.056-.199 1.407-.598.352-.398.528-.961.528-1.688s-.176-1.29-.528-1.689c-.351-.399-.82-.598-1.407-.598-.586 0-1.055.2-1.407.598zM82.838 13.603c-.786-.892-1.179-2.064-1.179-3.518 0-1.454.393-2.621 1.179-3.5.786-.892 1.741-1.337 2.867-1.337.727 0 1.413.252 2.058.756.27.223.492.469.668.739h.176V5.51h2.99v9.147h-2.99v-1.231h-.176a2.703 2.703 0 0 1-.668.756c-.633.493-1.32.739-2.058.739-1.126 0-2.081-.44-2.867-1.32zm2.427-5.207c-.352.399-.528.962-.528 1.689 0 .727.176 1.29.528 1.688.352.399.821.598 1.407.598.587 0 1.056-.199 1.407-.598.352-.398.528-.961.528-1.688s-.176-1.29-.528-1.689c-.351-.399-.82-.598-1.407-.598-.586 0-1.055.2-1.407.598zM92.82 11.668h2.99c.048.176.147.34.3.492.316.317.774.475 1.372.475.82 0 1.231-.205 1.231-.615 0-.188-.117-.335-.352-.44-.234-.117-.586-.235-1.055-.352a25.35 25.35 0 0 0-.757-.176 12.808 12.808 0 0 1-.738-.193 5.97 5.97 0 0 1-.81-.3c-.152-.093-.369-.222-.65-.386-.27-.176-.47-.352-.598-.528a4.175 4.175 0 0 1-.335-.686 2.534 2.534 0 0 1-.158-.897c0-.774.346-1.437 1.038-1.988.692-.55 1.665-.826 2.92-.826 1.571 0 2.814.516 3.729 1.547.363.446.615.956.756 1.53h-2.902a1.397 1.397 0 0 0-.246-.439c-.27-.293-.657-.44-1.161-.44-.704 0-1.056.205-1.056.616 0 .2.118.352.352.457.235.106.592.205 1.073.3 1.208.28 2.023.527 2.445.738 1.055.516 1.583 1.307 1.583 2.375 0 .844-.375 1.553-1.126 2.128-.738.575-1.8.862-3.183.862-1.7 0-2.996-.54-3.888-1.618a3.584 3.584 0 0 1-.773-1.636zM102.577 11.668h2.99c.047.176.147.34.299.492.317.317.774.475 1.372.475.821 0 1.232-.205 1.232-.615 0-.188-.118-.335-.352-.44-.235-.117-.586-.235-1.055-.352-.387-.094-.64-.152-.757-.176a13.048 13.048 0 0 1-.739-.193 5.978 5.978 0 0 1-.809-.3 31.263 31.263 0 0 0-.651-.386c-.269-.176-.469-.352-.598-.528a4.224 4.224 0 0 1-.334-.686 2.545 2.545 0 0 1-.158-.897c0-.774.346-1.437 1.038-1.988.692-.55 1.665-.826 2.92-.826 1.571 0 2.814.516 3.729 1.547.363.446.615.956.756 1.53h-2.902a1.408 1.408 0 0 0-.247-.439c-.269-.293-.656-.44-1.161-.44-.703 0-1.055.205-1.055.616 0 .2.117.352.352.457.234.106.592.205 1.073.3 1.208.28 2.023.527 2.445.738 1.055.516 1.583 1.307 1.583 2.375 0 .844-.375 1.553-1.126 2.128-.739.575-1.8.862-3.184.862-1.7 0-2.996-.54-3.887-1.618a3.579 3.579 0 0 1-.774-1.636z" fill="#fff"/><path fill-rule="evenodd" clip-rule="evenodd" d="M3.518 3.518v10.554h10.554L3.518 3.518zM0 0v17.59h17.59V0H0z" fill="#FF6E30"/></svg>