<?xml version="1.0" encoding="utf-8"?><svg viewBox="0 0 173 79" xmlns="http://www.w3.org/2000/svg" xmlns:xlink="http://www.w3.org/1999/xlink"><style>:root>svg{display:none}:root>svg:target{display:block}</style><svg fill="none" viewBox="0 0 12 7" id="other--arrow-down" xmlns="http://www.w3.org/2000/svg"><path d="M11 1 6 6 1 1" stroke="#fff"/></svg><svg fill="none" viewBox="0 0 7 12" id="other--arrow-left" xmlns="http://www.w3.org/2000/svg"><path d="M6 11 1 6l5-5" stroke="#fff"/></svg><svg fill="none" viewBox="0 0 7 12" id="other--arrow-left-black" xmlns="http://www.w3.org/2000/svg"><path d="M6 11 1 6l5-5" stroke="#000"/></svg><svg fill="none" viewBox="0 0 7 12" id="other--arrow-right" xmlns="http://www.w3.org/2000/svg"><path d="m1 11 5-5-5-5" stroke="#fff"/></svg><svg fill="none" viewBox="0 0 7 12" id="other--arrow-right-black" xmlns="http://www.w3.org/2000/svg"><path d="m1 11 5-5-5-5" stroke="#000"/></svg><svg fill="none" viewBox="0 0 12 7" id="other--arrow-up" xmlns="http://www.w3.org/2000/svg"><path d="M11 6 6 1 1 6" stroke="#000"/></svg><svg fill="none" viewBox="0 0 25 18" id="other--burger" xmlns="http://www.w3.org/2000/svg"><path fill="#fff" d="M25 0H0v2h25zM16 8H0v2h16V8ZM10 16H0v2h10v-2Z"/></svg><svg fill="none" viewBox="0 0 16 16" id="other--close" xmlns="http://www.w3.org/2000/svg"><path fill-rule="evenodd" clip-rule="evenodd" d="M.667 15.304 15.333 0 16 .696 1.333 16l-.666-.696Z" fill="#000"/><path fill-rule="evenodd" clip-rule="evenodd" d="m.667 0 14.667 15.304-.667.696L0 .696.667 0Z" fill="#000"/></svg><svg fill="none" viewBox="0 0 15 15" id="other--close-menu" xmlns="http://www.w3.org/2000/svg"><path fill="#fff" d="M1.366.001 15 13.636 13.637 15 .002 1.365z"/><path fill="#fff" d="M0 13.636 13.634.002l1.363 1.363L1.363 15z"/></svg><svg fill="none" viewBox="0 0 29 29" id="other--close-menu(768px)" xmlns="http://www.w3.org/2000/svg"><path fill="#fff" d="M2.636 0 29 26.364 26.364 29 0 2.636z"/><path fill="#fff" d="M0 26.364 26.364 0 29 2.636 2.636 29z"/></svg><svg fill="none" viewBox="0 0 13 12" id="other--cross" xmlns="http://www.w3.org/2000/svg"><path fill-rule="evenodd" clip-rule="evenodd" d="m.501 11.48 11-11.48.5.522-11 11.479-.5-.522Z" fill="#C283F3"/><path fill-rule="evenodd" clip-rule="evenodd" d="m.5 0 11 11.479L11 12 0 .52l.5-.52Z" fill="#C283F3"/></svg><svg fill="none" viewBox="0 0 4 4" id="other--dot" xmlns="http://www.w3.org/2000/svg"><circle cx="2" cy="2" r="2" fill="#C283F3"/></svg><svg fill="none" viewBox="0 0 9 9" id="other--enter" xmlns="http://www.w3.org/2000/svg"><path d="M3.545 6.295 4.25 7l2.5-2.5L4.25 2l-.705.705L4.835 4H0v1h4.835l-1.29 1.295ZM8 0H1a1 1 0 0 0-1 1v2h1V1h7v7H1V6H0v2a1 1 0 0 0 1 1h7c.55 0 1-.45 1-1V1c0-.55-.45-1-1-1Z" fill="#fff"/></svg><svg fill="none" viewBox="0 0 81 79" id="other--gallery-hover" xmlns="http://www.w3.org/2000/svg"><path fill="#fff" d="M18.136 57.197 0 74.638l4.535 4.36L22.67 61.558z"/><path fill-rule="evenodd" clip-rule="evenodd" d="M44.27 65.77c-16.229 0-29.385-13.087-29.385-29.23 0-16.145 13.156-29.232 29.385-29.232 16.228 0 29.384 13.087 29.384 29.231 0 16.144-13.156 29.232-29.384 29.232Zm0 7.309c-20.286 0-36.73-16.36-36.73-36.54S23.983 0 44.27 0C64.555 0 81 16.36 81 36.54S64.555 73.078 44.27 73.078Z" fill="#fff"/><path d="M42 24v25h5.995V24H42Z" fill="#fff"/><path d="M57.233 34h-25v5.995h25V34Z" fill="#fff"/></svg><svg fill="none" viewBox="0 0 97 22" id="other--logo" xmlns="http://www.w3.org/2000/svg"><path d="m1.562 17.803-1.398-1.98h1.01l.95 1.417.958-1.416h1.003l-1.403 1.98 1.474 2.067H3.153l-1.029-1.515L1.1 19.871H.096l1.466-2.068ZM4.254 15.824h.966l.848 2.294c.128.327.214.635.256.922h.03c.023-.134.065-.296.125-.486.06-.193.38-1.103.958-2.73h.957l-1.783 4.585c-.324.842-.865 1.263-1.621 1.263-.196 0-.388-.021-.574-.063v-.68c.134.03.286.044.457.044.427 0 .727-.24.9-.721l.155-.38-1.674-4.048ZM13.028 21.302h-.826v-1.43H9.344v1.43h-.818v-2.097h.34c.296-.412.531-.91.705-1.493.175-.586.28-1.215.312-1.888h2.534v3.381h.61v2.097Zm-1.482-2.097v-2.723h-.897a7.22 7.22 0 0 1-.302 1.486c-.15.488-.335.9-.554 1.237h1.753ZM17.5 17.84c0 .661-.175 1.177-.525 1.548-.349.37-.835.556-1.459.556-.39 0-.734-.085-1.033-.256a1.71 1.71 0 0 1-.69-.735c-.16-.32-.241-.69-.241-1.113 0-.656.173-1.169.52-1.537.347-.368.836-.553 1.467-.553.603 0 1.08.19 1.433.568.352.375.527.883.527 1.522Zm-3.036 0c0 .934.356 1.402 1.067 1.402.704 0 1.056-.468 1.056-1.402 0-.925-.354-1.387-1.063-1.387-.372 0-.642.12-.81.359-.167.239-.25.582-.25 1.028ZM20.576 17.789v-1.965h.826v1.965l1.606-1.965h.935l-1.64 1.958 1.787 2.09h-.977l-1.711-2.054v2.053h-.826v-2.053l-1.708 2.053h-.973l1.784-2.09-1.637-1.957h.935l1.6 1.965ZM26.556 19.944c-.649 0-1.156-.183-1.523-.549-.365-.368-.547-.874-.547-1.518 0-.662.17-1.181.509-1.56.34-.378.805-.567 1.399-.567.55 0 .985.163 1.304.487.32.325.48.771.48 1.34v.464h-2.78c.013.393.122.696.328.908.207.21.497.315.871.315.247 0 .475-.022.686-.066a3.78 3.78 0 0 0 .687-.227v.699c-.216.1-.435.17-.656.212a4.14 4.14 0 0 1-.758.062Zm-.162-3.542c-.282 0-.508.086-.679.26-.168.173-.269.425-.302.757h1.893c-.005-.334-.088-.587-.249-.757-.16-.174-.382-.26-.663-.26ZM30.865 19.944c-.63 0-1.11-.178-1.44-.534-.327-.359-.49-.872-.49-1.54 0-.681.17-1.205.513-1.57.344-.367.84-.55 1.489-.55.44 0 .836.08 1.188.238l-.268.692c-.375-.142-.684-.212-.928-.212-.721 0-1.082.464-1.082 1.394 0 .454.09.795.268 1.025.181.227.445.34.792.34a2.32 2.32 0 0 0 1.12-.285v.75c-.159.09-.329.155-.51.194a3.108 3.108 0 0 1-.652.058ZM36.14 15.824v.673h-1.357v3.374h-.89v-3.374h-1.358v-.673h3.605ZM40.563 16.86c0 .477-.288.767-.864.867v.029c.322.037.568.135.74.296a.82.82 0 0 1 .255.626c0 .383-.15.678-.452.886-.299.205-.735.307-1.308.307h-1.99v-4.047h1.982c1.091 0 1.637.345 1.637 1.035Zm-.777 1.767c0-.195-.078-.333-.234-.414-.156-.083-.39-.124-.701-.124h-1.022v1.145h1.044c.609 0 .913-.202.913-.607Zm-.11-1.695c0-.16-.065-.276-.196-.347-.128-.073-.32-.11-.576-.11h-1.075v.973h.943c.296 0 .521-.036.675-.11.153-.075.23-.21.23-.406ZM43.432 19.944c-.649 0-1.157-.183-1.523-.549-.365-.368-.547-.874-.547-1.518 0-.662.17-1.181.509-1.56.34-.378.805-.567 1.399-.567.55 0 .985.163 1.304.487.32.325.479.771.479 1.34v.464h-2.779c.013.393.122.696.328.908.206.21.497.315.871.315.247 0 .475-.022.687-.066.213-.047.442-.122.686-.227v.699c-.216.1-.435.17-.656.212a4.14 4.14 0 0 1-.758.062Zm-.162-3.542c-.282 0-.508.086-.679.26-.168.173-.269.425-.302.757h1.893c-.005-.334-.088-.587-.249-.757-.16-.174-.382-.26-.663-.26ZM46.946 15.824v1.624h1.964v-1.624h.886v4.047h-.886v-1.745h-1.964v1.745h-.886v-4.047h.886ZM51.953 15.824v1.624h1.964v-1.624h.886v4.047h-.886v-1.745h-1.964v1.745h-.886v-4.047h.886ZM58.683 19.871l-.178-.563h-.03c-.2.246-.403.414-.607.505-.203.087-.465.131-.784.131-.41 0-.73-.107-.961-.322-.23-.214-.343-.518-.343-.911 0-.417.16-.732.478-.944.32-.212.806-.328 1.46-.348l.72-.022v-.216c0-.258-.063-.451-.189-.578-.123-.13-.315-.194-.577-.194-.213 0-.418.03-.614.092a4.73 4.73 0 0 0-.566.215l-.286-.614c.226-.115.473-.202.742-.26.27-.061.523-.092.762-.092.53 0 .93.113 1.199.337.271.224.407.577.407 1.058v2.726h-.633Zm-1.32-.585c.322 0 .58-.087.773-.26.196-.176.294-.421.294-.736v-.351l-.535.022c-.418.014-.722.083-.913.205-.188.12-.282.303-.282.552 0 .18.055.321.165.421.111.098.277.147.498.147ZM60.979 19.871h-.992l1.161-1.658a1.253 1.253 0 0 1-.663-.417 1.169 1.169 0 0 1-.241-.75c0-.383.14-.682.422-.897.281-.217.666-.325 1.154-.325h1.9v4.047h-.89v-1.559h-.84l-1.011 1.56Zm.128-2.818c0 .208.08.364.241.469.164.102.382.153.656.153h.826v-1.2h-.965c-.241 0-.429.05-.562.15a.507.507 0 0 0-.196.428ZM69.688 15.824v.673h-1.81v3.374h-.885v-4.047h2.695ZM73.1 19.871l-.177-.563h-.03c-.201.246-.403.414-.607.505-.204.087-.465.131-.784.131-.41 0-.73-.107-.962-.322-.228-.214-.343-.518-.343-.911 0-.417.16-.732.48-.944.318-.212.805-.328 1.458-.348l.72-.022v-.216c0-.258-.063-.451-.188-.578-.123-.13-.316-.194-.577-.194-.214 0-.419.03-.615.092a4.737 4.737 0 0 0-.565.215l-.287-.614c.227-.115.474-.202.743-.26.269-.061.523-.092.762-.092.53 0 .93.113 1.199.337.271.224.407.577.407 1.058v2.726H73.1Zm-1.32-.585c.323 0 .58-.087.774-.26.196-.176.294-.421.294-.736v-.351l-.536.022c-.417.014-.721.083-.912.205-.189.12-.283.303-.283.552 0 .18.055.321.166.421.11.098.277.147.498.147ZM78.398 19.871h-.894v-3.374h-1.15c-.07.869-.166 1.547-.286 2.035-.118.488-.274.844-.468 1.068a.934.934 0 0 1-.746.337c-.194 0-.356-.027-.487-.08v-.674a.804.804 0 0 0 .28.051c.256 0 .457-.279.602-.838.149-.56.264-1.418.347-2.572h2.802v4.047ZM81.49 19.944c-.65 0-1.157-.183-1.524-.549-.364-.368-.546-.874-.546-1.518 0-.662.17-1.181.508-1.56.34-.378.806-.567 1.4-.567.55 0 .985.163 1.304.487.319.325.479.771.479 1.34v.464h-2.78c.013.393.123.696.329.908.206.21.496.315.87.315.247 0 .476-.022.687-.066a3.78 3.78 0 0 0 .686-.227v.699c-.216.1-.435.17-.656.212a4.14 4.14 0 0 1-.758.062Zm-.163-3.542c-.281 0-.507.086-.678.26-.169.173-.27.425-.302.757h1.893c-.005-.334-.088-.587-.25-.757-.16-.174-.381-.26-.663-.26ZM86.233 19.944c-.528 0-.938-.184-1.23-.552h-.052c.035.341.052.549.052.622v1.658h-.886v-5.848h.717c.02.075.061.256.124.541h.045c.277-.41.692-.615 1.245-.615.52 0 .924.183 1.214.55.291.365.437.879.437 1.54s-.148 1.177-.445 1.548c-.294.37-.701.556-1.221.556Zm-.216-3.491c-.351 0-.609.1-.772.3-.161.2-.242.52-.242.959v.128c0 .493.08.85.242 1.072.16.22.423.33.788.33a.806.806 0 0 0 .708-.366c.166-.244.25-.592.25-1.043 0-.454-.084-.797-.25-1.029-.163-.234-.404-.351-.724-.351ZM90.75 19.944c-.65 0-1.157-.183-1.524-.549-.364-.368-.547-.874-.547-1.518 0-.662.17-1.181.51-1.56.339-.378.805-.567 1.398-.567.55 0 .986.163 1.305.487.319.325.479.771.479 1.34v.464h-2.78c.013.393.123.696.329.908.206.21.496.315.87.315.247 0 .476-.022.687-.066a3.78 3.78 0 0 0 .686-.227v.699c-.216.1-.435.17-.656.212a4.14 4.14 0 0 1-.758.062Zm-.163-3.542c-.281 0-.508.086-.678.26-.169.173-.27.425-.302.757H91.5c-.005-.334-.088-.587-.25-.757-.16-.174-.381-.26-.663-.26ZM93.803 19.871h-.991l1.16-1.658a1.252 1.252 0 0 1-.663-.417 1.168 1.168 0 0 1-.24-.75c0-.383.14-.682.421-.897.282-.217.666-.325 1.154-.325h1.9v4.047h-.89v-1.559h-.84l-1.01 1.56Zm.129-2.818c0 .208.08.364.24.469.164.102.383.153.657.153h.826v-1.2h-.966c-.241 0-.428.05-.561.15a.507.507 0 0 0-.197.428ZM0 11.73h6.525c2.573 0 3.89-1.13 3.89-3.284v-.033c0-1.6-.837-2.573-2.45-2.85v-.15c1.351-.252 2.058-1.106 2.058-2.497v-.042C10.023.98 8.793 0 6.385 0H0v11.73Zm2.573-6.929V1.66h3.045c1.23 0 1.84.52 1.84 1.542v.033c0 1.04-.61 1.567-1.84 1.567H2.573Zm0 5.262V6.326h3.123c1.352 0 2.024.62 2.024 1.835v.034c0 1.24-.672 1.868-2.024 1.868H2.573ZM12.84 0v11.73h2.538V0h-2.539ZM20.689 11.948c2.05 0 3.541-.88 4.091-2.37l.174.041c-.33 1.626.018 2.33 2.024 2.33.253 0 .506-.026.716-.06l.296-1.449-.436-.008c-.48-.008-.62-.117-.62-.712V5.69c0-1.995-1.378-2.95-4.317-2.95-3.123 0-4.702 1.181-4.571 3.226l2.503.201c-.104-1.349.611-1.96 2.015-1.96 1.256 0 1.85.443 1.85 1.457v.495l-2.478.435c-2.477.444-4.117 1.199-4.117 3.042v.025c0 1.458 1.03 2.287 2.87 2.287Zm1.012-1.625c-.855 0-1.317-.293-1.317-.897V9.41c0-.863.81-1.215 2.416-1.517l1.614-.302v.411c0 1.349-1.265 2.321-2.713 2.321ZM30.126 11.73h2.539V7.643c0-1.978.968-3.201 2.573-3.201 1.195 0 1.788.595 1.788 1.734v5.556h2.539V5.589c0-1.844-1.126-2.816-3.22-2.816-1.9 0-3.2.805-3.968 2.48l-.175-.075c.35-.997.471-1.592.471-2.245h-2.547v8.798ZM47.118 11.94c2.992 0 4.666-1.156 4.92-3.393l-2.565-.277c-.105 1.408-.907 2.12-2.347 2.12-1.613 0-2.45-.972-2.45-2.89v-.411c0-1.877.845-2.824 2.424-2.824 1.457 0 2.216.78 2.33 2.338l2.529-.277c-.2-2.371-1.814-3.603-4.85-3.603-3.297 0-5.033 1.55-5.033 4.516v.11c0 3.016 1.718 4.591 5.042 4.591ZM54.566 11.73h2.538V7.643c0-1.978.96-3.193 2.574-3.193 1.195 0 1.788.587 1.788 1.726v5.556h2.538V5.589c0-1.844-1.134-2.816-3.218-2.816-1.92 0-3.21.805-3.97 2.472l-.183-.067c.34-.938.463-1.634.471-2.463V0h-2.538v11.73ZM69.272 11.948c2.05 0 3.542-.88 4.091-2.37l.175.041c-.332 1.626.017 2.33 2.023 2.33.253 0 .506-.026.716-.06l.296-1.449-.436-.008c-.48-.008-.62-.117-.62-.712V5.69c0-1.995-1.377-2.95-4.317-2.95-3.123 0-4.702 1.181-4.57 3.226l2.503.201c-.105-1.349.61-1.96 2.015-1.96 1.256 0 1.849.443 1.849 1.457v.495l-2.477.435c-2.478.444-4.118 1.199-4.118 3.042v.025c0 1.458 1.03 2.287 2.87 2.287Zm1.012-1.625c-.855 0-1.317-.293-1.317-.897V9.41c0-.863.811-1.215 2.416-1.517l1.614-.302v.411c0 1.349-1.265 2.321-2.713 2.321ZM78.71 11.73h2.538V8.053c0-2.296.741-3.142 2.678-3.276l1.247-.092-.296-2.028c-2.05.151-3.001.771-3.943 2.598l-.166-.076c.41-1.173.506-1.642.489-2.245h-2.548v8.798ZM90.781 11.89c1.884 0 3.114-.838 3.733-2.355l.184.059c-.297.922-.454 1.65-.463 2.137H96.8V0h-2.538v2.388c0 .922.13 1.667.445 2.681l-.175.067c-.62-1.508-1.858-2.38-3.75-2.38-2.618 0-3.996 1.534-3.996 4.467v.21c0 2.924 1.378 4.457 3.995 4.457Zm.96-1.508c-1.57 0-2.39-.964-2.39-2.866v-.385c0-1.91.82-2.883 2.39-2.883 1.64 0 2.52 1.022 2.52 2.924v.302c0 1.894-.88 2.908-2.52 2.908Z" fill="#fff"/></svg><svg fill="none" viewBox="0 0 173 40" id="other--logo(768px)" xmlns="http://www.w3.org/2000/svg"><path d="m2.79 32.78-2.5-3.645h1.806l1.698 2.607 1.711-2.607h1.793L4.79 32.78l2.635 3.807H5.633l-1.84-2.79-1.832 2.79H.168L2.79 32.78ZM7.6 29.135h1.726l1.516 4.225c.229.602.382 1.168.458 1.698h.054c.04-.247.115-.546.222-.897.108-.354.679-2.03 1.712-5.026h1.711l-3.187 8.443c-.58 1.55-1.545 2.325-2.897 2.325-.35 0-.692-.039-1.024-.115v-1.253c.238.054.51.08.815.08.764 0 1.3-.442 1.61-1.327l.277-.7L7.6 29.134ZM23.28 39.222h-1.475v-2.635h-5.107v2.635h-1.463v-3.861h.607c.53-.76.95-1.676 1.26-2.75.314-1.077.5-2.236.559-3.476h4.528v6.226h1.092v3.861Zm-2.647-3.861v-5.013h-1.604a13.644 13.644 0 0 1-.54 2.735c-.269.899-.599 1.658-.99 2.278h3.134ZM31.272 32.848c0 1.217-.312 2.167-.936 2.85-.625.683-1.494 1.024-2.608 1.024-.696 0-1.312-.157-1.846-.472a3.114 3.114 0 0 1-1.233-1.354c-.288-.589-.432-1.271-.432-2.048 0-1.209.31-2.152.93-2.83.62-.679 1.494-1.018 2.622-1.018 1.078 0 1.931.348 2.56 1.044.629.692.943 1.627.943 2.804Zm-5.424 0c0 1.72.636 2.58 1.907 2.58 1.258 0 1.887-.86 1.887-2.58 0-1.703-.634-2.554-1.9-2.554-.665 0-1.148.22-1.45.66-.296.44-.444 1.072-.444 1.894ZM36.77 32.753v-3.618h1.476v3.618l2.871-3.618h1.671l-2.931 3.605 3.194 3.847h-1.745l-3.06-3.78v3.78h-1.475v-3.78l-3.053 3.78H31.98l3.187-3.847-2.924-3.605h1.67l2.858 3.618ZM47.458 36.722c-1.16 0-2.067-.337-2.722-1.01-.652-.679-.978-1.611-.978-2.797 0-1.217.304-2.174.91-2.87.607-.697 1.44-1.045 2.5-1.045.984 0 1.76.299 2.331.896.57.598.856 1.42.856 2.466v.856H45.39c.022.723.218 1.28.586 1.671.369.387.887.58 1.557.58.44 0 .849-.04 1.226-.122.382-.085.79-.224 1.227-.417v1.287a4.86 4.86 0 0 1-1.173.39 7.187 7.187 0 0 1-1.354.115Zm-.29-6.523c-.503 0-.907.16-1.213.479-.3.319-.48.784-.539 1.395h3.383c-.01-.616-.158-1.08-.445-1.395-.288-.32-.683-.479-1.186-.479ZM55.16 36.722c-1.128 0-1.986-.328-2.574-.984-.584-.66-.876-1.606-.876-2.837 0-1.253.305-2.216.916-2.89.615-.674 1.503-1.011 2.662-1.011.786 0 1.493.146 2.122.438l-.478 1.274c-.67-.261-1.222-.391-1.658-.391-1.29 0-1.934.855-1.934 2.567 0 .836.16 1.464.479 1.887.323.418.795.626 1.415.626a4.05 4.05 0 0 0 2.001-.525v1.381a3.124 3.124 0 0 1-.91.357 5.396 5.396 0 0 1-1.165.108ZM64.586 29.135v1.24h-2.425v6.212h-1.59v-6.212h-2.426v-1.24h6.441ZM72.49 31.042c0 .88-.514 1.413-1.543 1.597v.054c.575.067 1.016.249 1.321.545.305.297.458.68.458 1.153 0 .705-.27 1.248-.808 1.63-.535.378-1.314.566-2.339.566h-3.557v-7.452h3.544c1.95 0 2.924.635 2.924 1.907Zm-1.388 3.254c0-.36-.139-.613-.417-.761-.279-.153-.697-.23-1.254-.23h-1.826v2.11h1.867c1.087 0 1.63-.373 1.63-1.119Zm-.195-3.12c0-.296-.117-.51-.35-.64-.23-.134-.573-.202-1.031-.202h-1.92v1.793h1.684c.53 0 .932-.068 1.206-.203.274-.139.41-.388.41-.747ZM77.618 36.722c-1.159 0-2.066-.337-2.722-1.01-.651-.679-.977-1.611-.977-2.797 0-1.217.303-2.174.91-2.87.606-.697 1.44-1.045 2.5-1.045.983 0 1.76.299 2.331.896.57.598.856 1.42.856 2.466v.856H75.55c.022.723.218 1.28.586 1.671.368.387.887.58 1.556.58.44 0 .85-.04 1.227-.122.382-.085.79-.224 1.226-.417v1.287a4.857 4.857 0 0 1-1.172.39 7.187 7.187 0 0 1-1.355.115Zm-.29-6.523c-.503 0-.907.16-1.212.479-.301.319-.481.784-.54 1.395h3.383c-.009-.616-.157-1.08-.445-1.395-.287-.32-.682-.479-1.185-.479ZM83.898 29.135v2.992h3.511v-2.992h1.584v7.452h-1.584v-3.214h-3.51v3.214h-1.584v-7.452h1.583ZM92.847 29.135v2.992h3.51v-2.992h1.584v7.452h-1.584v-3.214h-3.51v3.214h-1.584v-7.452h1.584ZM104.875 36.587l-.317-1.037h-.054c-.359.453-.721.763-1.085.93-.364.161-.831.242-1.401.242-.733 0-1.305-.198-1.719-.593-.409-.395-.613-.954-.613-1.678 0-.768.285-1.347.856-1.738.57-.391 1.44-.604 2.608-.64l1.287-.04v-.398c0-.477-.113-.831-.337-1.065-.22-.238-.564-.357-1.031-.357-.382 0-.748.056-1.099.168-.35.113-.687.245-1.01.398l-.512-1.132c.404-.211.846-.37 1.327-.478a5.993 5.993 0 0 1 1.361-.169c.948 0 1.662.207 2.143.62.485.413.728 1.062.728 1.947v5.02h-1.132Zm-2.359-1.078c.575 0 1.036-.16 1.382-.478.35-.324.525-.775.525-1.355v-.647l-.957.04c-.745.028-1.289.154-1.63.378-.337.22-.506.56-.506 1.018 0 .332.099.59.297.775.197.18.494.27.889.27ZM108.978 36.587h-1.772l2.075-3.052c-.503-.144-.898-.4-1.185-.768-.288-.373-.432-.834-.432-1.382 0-.705.252-1.255.755-1.65.503-.4 1.19-.6 2.062-.6h3.396v7.452h-1.59v-2.87h-1.503l-1.806 2.87Zm.229-5.188c0 .382.144.67.432.862.292.189.682.283 1.172.283h1.476v-2.21h-1.725c-.432 0-.766.092-1.004.276-.234.185-.351.447-.351.789ZM124.544 29.135v1.24h-3.235v6.212h-1.583v-7.452h4.818ZM130.642 36.587l-.317-1.037h-.054c-.359.453-.721.763-1.085.93-.364.161-.831.242-1.401.242-.732 0-1.305-.198-1.718-.593-.409-.395-.614-.954-.614-1.678 0-.768.286-1.347.856-1.738.571-.391 1.44-.604 2.608-.64l1.287-.04v-.398c0-.477-.112-.831-.337-1.065-.22-.238-.564-.357-1.031-.357-.382 0-.748.056-1.098.168a8.247 8.247 0 0 0-1.011.398l-.512-1.132c.404-.211.847-.37 1.327-.478a6 6 0 0 1 1.361-.169c.948 0 1.662.207 2.143.62.485.413.728 1.062.728 1.947v5.02h-1.132Zm-2.359-1.078c.575 0 1.036-.16 1.382-.478.35-.324.525-.775.525-1.355v-.647l-.956.04c-.746.028-1.29.154-1.631.378-.337.22-.506.56-.506 1.018 0 .332.099.59.297.775.198.18.494.27.889.27ZM140.109 36.587h-1.597v-6.212h-2.055c-.126 1.599-.297 2.848-.512 3.746-.211.898-.49 1.554-.836 1.968-.341.413-.786.62-1.334.62-.346 0-.636-.05-.869-.149v-1.24c.166.063.332.095.498.095.459 0 .818-.514 1.079-1.543.265-1.033.471-2.612.62-4.737h5.006v7.452ZM145.634 36.722c-1.159 0-2.066-.337-2.722-1.01-.651-.679-.977-1.611-.977-2.797 0-1.217.303-2.174.91-2.87.606-.697 1.44-1.045 2.5-1.045.984 0 1.761.299 2.331.896.571.598.856 1.42.856 2.466v.856h-4.966c.022.723.218 1.28.586 1.671.368.387.887.58 1.557.58.44 0 .849-.04 1.226-.122a6.584 6.584 0 0 0 1.226-.417v1.287a4.854 4.854 0 0 1-1.172.39 7.188 7.188 0 0 1-1.355.115Zm-.289-6.523c-.503 0-.908.16-1.213.479-.301.319-.481.784-.539 1.395h3.382c-.009-.616-.157-1.08-.444-1.395-.288-.32-.683-.479-1.186-.479ZM154.111 36.722c-.943 0-1.675-.34-2.196-1.017h-.095c.063.629.095 1.01.095 1.145v3.053h-1.584V29.135h1.28c.036.139.11.471.223.997h.081c.494-.755 1.235-1.132 2.223-1.132.93 0 1.653.337 2.17 1.01.521.675.782 1.62.782 2.838 0 1.217-.265 2.167-.796 2.85-.525.683-1.253 1.024-2.183 1.024Zm-.384-6.428c-.629 0-1.089.184-1.381.552-.288.369-.431.957-.431 1.766v.236c0 .907.143 1.565.431 1.974.287.404.757.606 1.408.606.548 0 .97-.224 1.267-.673.296-.45.445-1.09.445-1.92 0-.837-.149-1.468-.445-1.894-.292-.432-.723-.647-1.294-.647ZM162.184 36.722c-1.159 0-2.067-.337-2.723-1.01-.651-.679-.977-1.611-.977-2.797 0-1.217.304-2.174.91-2.87.606-.697 1.44-1.045 2.5-1.045.984 0 1.761.299 2.331.896.571.598.856 1.42.856 2.466v.856h-4.966c.022.723.218 1.28.586 1.671.369.387.887.58 1.557.58.44 0 .849-.04 1.226-.122a6.616 6.616 0 0 0 1.227-.417v1.287a4.876 4.876 0 0 1-1.173.39 7.184 7.184 0 0 1-1.354.115Zm-.29-6.523c-.503 0-.907.16-1.213.479-.301.319-.481.784-.539 1.395h3.383c-.009-.616-.158-1.08-.445-1.395-.288-.32-.683-.479-1.186-.479ZM167.642 36.587h-1.772l2.075-3.052c-.503-.144-.899-.4-1.186-.768-.288-.373-.431-.834-.431-1.382 0-.705.251-1.255.754-1.65.504-.4 1.191-.6 2.062-.6h3.396v7.452h-1.59v-2.87h-1.502l-1.806 2.87Zm.229-5.188c0 .382.144.67.431.862.292.189.683.283 1.173.283h1.475v-2.21h-1.725c-.431 0-.766.092-1.004.276-.233.185-.35.447-.35.789ZM0 21.599h11.661c4.6 0 6.953-2.083 6.953-6.048v-.062c0-2.946-1.497-4.736-4.38-5.245v-.278c2.416-.462 3.679-2.036 3.679-4.597v-.077C17.913 1.805 15.714 0 11.412 0H0v21.599ZM4.599 8.84V3.055h5.44c2.199 0 3.29.956 3.29 2.838v.062c0 1.913-1.091 2.885-3.29 2.885H4.6Zm0 9.689v-6.881h5.581c2.417 0 3.617 1.142 3.617 3.379v.061c0 2.284-1.2 3.44-3.617 3.44H4.6ZM22.946 0v21.599h4.537V0h-4.537ZM36.975 22c3.664 0 6.33-1.62 7.312-4.366l.312.077c-.593 2.993.03 4.289 3.616 4.289.452 0 .904-.046 1.279-.108l.53-2.669-.78-.015c-.857-.016-1.107-.216-1.107-1.312v-7.42c0-3.672-2.463-5.431-7.717-5.431-5.58 0-8.402 2.175-8.169 5.94l4.475.37c-.187-2.484 1.091-3.61 3.6-3.61 2.246 0 3.306.817 3.306 2.684v.91l-4.427.803c-4.428.817-7.359 2.206-7.359 5.6v.046c0 2.685 1.84 4.212 5.13 4.212Zm1.808-2.993c-1.527 0-2.354-.54-2.354-1.65v-.032c0-1.589 1.45-2.237 4.319-2.792l2.884-.555v.755c0 2.484-2.26 4.274-4.849 4.274ZM53.841 21.599h4.537V14.07c0-3.64 1.73-5.893 4.599-5.893 2.136 0 3.196 1.095 3.196 3.193V21.6h4.537V10.29c0-3.394-2.012-5.183-5.753-5.183-3.399 0-5.722 1.48-7.093 4.566l-.312-.139c.623-1.836.842-2.93.842-4.134H53.84v16.199ZM84.208 21.985c5.348 0 8.34-2.13 8.793-6.249l-4.584-.509c-.186 2.592-1.62 3.903-4.193 3.903-2.884 0-4.38-1.79-4.38-5.322v-.756c0-3.456 1.511-5.2 4.333-5.2 2.604 0 3.96 1.436 4.163 4.305l4.52-.509c-.358-4.366-3.242-6.634-8.667-6.634-5.893 0-8.996 2.854-8.996 8.316v.2c0 5.554 3.072 8.455 9.011 8.455ZM97.52 21.599h4.537V14.07c0-3.64 1.715-5.878 4.599-5.878 2.135 0 3.196 1.08 3.196 3.178V21.6h4.536V10.29c0-3.394-2.026-5.183-5.752-5.183-3.43 0-5.737 1.48-7.094 4.55l-.327-.123c.608-1.728.826-3.008.842-4.535V0H97.52v21.599ZM123.803 22c3.663 0 6.329-1.62 7.311-4.366l.312.077c-.593 2.993.031 4.289 3.617 4.289.452 0 .904-.046 1.278-.108l.53-2.669-.779-.015c-.858-.016-1.107-.216-1.107-1.312v-7.42c0-3.672-2.463-5.431-7.717-5.431-5.581 0-8.403 2.175-8.169 5.94l4.474.37c-.187-2.484 1.091-3.61 3.601-3.61 2.245 0 3.305.817 3.305 2.684v.91l-4.427.803c-4.428.817-7.359 2.206-7.359 5.6v.046c0 2.685 1.84 4.212 5.13 4.212Zm1.808-2.993c-1.528 0-2.354-.54-2.354-1.65v-.032c0-1.589 1.45-2.237 4.318-2.792l2.884-.555v.755c0 2.484-2.26 4.274-4.848 4.274ZM140.669 21.599h4.536v-6.773c0-4.227 1.325-5.785 4.786-6.032l2.23-.17-.53-3.733c-3.664.277-5.363 1.419-7.047 4.782l-.296-.139c.733-2.16.904-3.023.873-4.134h-4.552v16.199ZM162.243 21.892c3.367 0 5.566-1.543 6.672-4.335l.328.108c-.53 1.697-.811 3.04-.826 3.934H173V0h-4.537v4.397c0 1.697.234 3.07.795 4.937l-.311.123c-1.107-2.777-3.321-4.381-6.704-4.381-4.677 0-7.14 2.823-7.14 8.223v.385c0 5.385 2.463 8.208 7.14 8.208Zm1.715-2.777c-2.806 0-4.272-1.774-4.272-5.276v-.71c0-3.518 1.466-5.307 4.272-5.307 2.931 0 4.505 1.882 4.505 5.384v.556c0 3.486-1.574 5.353-4.505 5.353Z" fill="#fff"/></svg><svg fill="none" viewBox="0 0 20 20" id="other--map-point" xmlns="http://www.w3.org/2000/svg"><circle cx="10" cy="10" r="9.5" fill="#9D5CD0" stroke="#fff"/></svg><svg fill="none" viewBox="0 0 18 19" id="other--search" xmlns="http://www.w3.org/2000/svg"><path fill-rule="evenodd" clip-rule="evenodd" d="M16 8A6 6 0 1 1 4 8a6 6 0 0 1 12 0Zm2 0a8 8 0 0 1-12.902 6.322l-3.682 3.682L.002 16.59l3.68-3.681A8 8 0 1 1 18 8Z" fill="#fff"/></svg><svg fill="none" viewBox="0 0 16 16" id="other--tooltip" xmlns="http://www.w3.org/2000/svg"><path d="M15.5 8a7.5 7.5 0 1 1-15 0 7.5 7.5 0 0 1 15 0Z" stroke="#9D5CD0"/><path d="M7.262 6.455h1.476V13H7.262V6.455ZM8 4.903c-.287 0-.528-.092-.723-.274A.906.906 0 0 1 7 3.959c0-.264.092-.487.277-.67A.988.988 0 0 1 8 3c.287 0 .523.091.708.274.195.172.292.39.292.654a.949.949 0 0 1-.292.7.964.964 0 0 1-.708.275Z" fill="#000"/></svg><svg fill="none" viewBox="0 0 16 16" id="other--tooltip(active)" xmlns="http://www.w3.org/2000/svg"><path fill-rule="evenodd" clip-rule="evenodd" d="M8 16A8 8 0 1 0 8 0a8 8 0 0 0 0 16Z" fill="#9D5CD0"/><path d="M7.262 6.455h1.476V13H7.262V6.455ZM8 4.903c-.287 0-.528-.092-.723-.274A.906.906 0 0 1 7 3.959c0-.264.092-.487.277-.67A.988.988 0 0 1 8 3c.287 0 .523.091.708.274.195.172.292.39.292.654a.949.949 0 0 1-.292.7.964.964 0 0 1-.708.275Z" fill="#fff"/></svg><svg fill="none" viewBox="0 0 16 16" id="other--tooltip(hover)" xmlns="http://www.w3.org/2000/svg"><path d="M15.5 8a7.5 7.5 0 1 1-15 0 7.5 7.5 0 0 1 15 0Z" fill="#D1A9F0" stroke="#9D5CD0"/><path d="M7.262 6.455h1.476V13H7.262V6.455ZM8 4.903c-.287 0-.528-.092-.723-.274A.906.906 0 0 1 7 3.959c0-.264.092-.487.277-.67A.988.988 0 0 1 8 3c.287 0 .523.091.708.274.195.172.292.39.292.654a.949.949 0 0 1-.292.7.964.964 0 0 1-.708.275Z" fill="#000"/></svg><svg fill="none" viewBox="0 0 50 50" id="social-networks--fb" xmlns="http://www.w3.org/2000/svg"><path d="M25 0C11.25 0 0 11.27 0 25.15 0 37.7 9.15 48.119 21.1 50V32.43h-6.35v-7.28h6.35v-5.547c0-6.3 3.725-9.764 9.45-9.764 2.725 0 5.575.477 5.575.477v6.2h-3.15c-3.1 0-4.075 1.933-4.075 3.916v4.719h6.95l-1.125 7.279H28.9V50a24.975 24.975 0 0 0 15.125-8.509A25.16 25.16 0 0 0 50 25.151C50 11.27 38.75 0 25 0Z" fill="#CACACA"/></svg><svg fill="none" viewBox="0 0 50 50" id="social-networks--instagram" xmlns="http://www.w3.org/2000/svg"><path d="M20.215 25a4.785 4.785 0 1 0 9.57 0 4.785 4.785 0 0 0-9.57 0Z" fill="#CACACA"/><path d="M13.81 16.533a4.448 4.448 0 0 1 1.073-1.65 4.445 4.445 0 0 1 1.65-1.074c.506-.197 1.266-.43 2.666-.494 1.514-.07 1.968-.084 5.8-.084 3.834 0 4.288.014 5.802.084 1.4.064 2.16.297 2.665.494.624.23 1.188.597 1.65 1.074a4.45 4.45 0 0 1 1.075 1.65c.197.506.43 1.266.494 2.666.07 1.514.084 1.968.084 5.801s-.015 4.287-.084 5.801c-.064 1.4-.297 2.16-.494 2.665a4.45 4.45 0 0 1-1.074 1.651 4.445 4.445 0 0 1-1.65 1.074c-.506.197-1.266.43-2.666.494-1.514.07-1.967.084-5.8.084-3.835 0-4.288-.015-5.802-.084-1.4-.064-2.16-.297-2.665-.494a4.754 4.754 0 0 1-2.725-2.725c-.196-.505-.43-1.265-.494-2.665-.07-1.514-.084-1.968-.084-5.8 0-3.834.015-4.288.084-5.802.064-1.4.297-2.16.494-2.666ZM25 32.371a7.371 7.371 0 1 0 0-14.743 7.371 7.371 0 0 0 0 14.743ZM17.337 19.06a1.723 1.723 0 1 0 0-3.445 1.723 1.723 0 0 0 0 3.445Z" fill="#CACACA"/><path d="M25 0c13.805 0 25 11.195 25 25S38.805 50 25 50 0 38.805 0 25 11.195 0 25 0ZM10.731 30.919c.07 1.528.313 2.571.667 3.484a7.34 7.34 0 0 0 4.199 4.199c.913.355 1.956.597 3.484.667 1.531.07 2.02.087 5.919.087 3.899 0 4.387-.017 5.919-.087 1.527-.07 2.571-.313 3.484-.667a7.033 7.033 0 0 0 2.543-1.656 7.035 7.035 0 0 0 1.655-2.543c.355-.913.598-1.956.668-3.484.07-1.531.087-2.02.087-5.919 0-3.899-.017-4.388-.087-5.919-.07-1.528-.312-2.571-.667-3.484a7.033 7.033 0 0 0-1.656-2.543 7.032 7.032 0 0 0-2.543-1.656c-.913-.354-1.956-.597-3.484-.667-1.531-.07-2.02-.086-5.919-.086-3.899 0-4.388.016-5.919.087-1.528.069-2.571.312-3.484.666a7.038 7.038 0 0 0-2.543 1.656 7.033 7.033 0 0 0-1.656 2.543c-.355.913-.597 1.956-.667 3.484-.07 1.531-.086 2.02-.086 5.919 0 3.899.016 4.388.086 5.919Z" fill="#CACACA"/></svg><svg fill="none" viewBox="0 0 50 50" id="social-networks--telegram" xmlns="http://www.w3.org/2000/svg"><path d="M25 50c13.807 0 25-11.193 25-25S38.807 0 25 0 0 11.193 0 25s11.193 25 25 25Z" fill="url(#xa)"/><path fill-rule="evenodd" clip-rule="evenodd" d="m11.317 24.736 14.58-6.28c6.942-2.887 8.385-3.389 9.325-3.405.207-.004.67.047.969.29.253.205.322.483.355.677.034.195.075.638.042.984-.376 3.953-2.004 13.547-2.832 17.974-.35 1.873-1.04 2.502-1.709 2.563-1.451.134-2.554-.96-3.96-1.881l-5.58-3.748c-2.468-1.626-.867-2.52.54-3.981.367-.383 6.764-6.2 6.888-6.729.015-.066.03-.312-.117-.442-.146-.13-.362-.085-.517-.05-.22.05-3.736 2.373-10.545 6.97-.998.685-1.902 1.02-2.712 1.002-.892-.02-2.61-.505-3.886-.92-1.565-.509-2.81-.778-2.701-1.642.056-.45.676-.91 1.86-1.381Z" fill="#fff"/><defs><linearGradient id="xa" x1="25" y1="0" x2="25" y2="49.629" gradientUnits="userSpaceOnUse"><stop stop-color="#2AABEE"/><stop offset="1" stop-color="#229ED9"/></linearGradient></defs></svg><svg fill="none" viewBox="0 0 50 50" id="social-networks--vk" xmlns="http://www.w3.org/2000/svg"><path d="M25 0C11.193 0 0 11.193 0 25s11.193 25 25 25 25-11.193 25-25S38.807 0 25 0Zm12.681 27.704c1.166 1.138 2.398 2.209 3.444 3.465.464.555.9 1.13 1.233 1.776.475.921.046 1.931-.778 1.986l-5.122-.001c-1.323.11-2.376-.424-3.263-1.328-.709-.721-1.366-1.491-2.048-2.236-.279-.306-.573-.594-.922-.82-.699-.455-1.305-.316-1.705.414-.408.742-.501 1.564-.54 2.39-.056 1.208-.42 1.524-1.632 1.58-2.589.122-5.046-.271-7.33-1.577-2.013-1.151-3.573-2.776-4.931-4.616-2.646-3.587-4.672-7.523-6.492-11.573-.41-.912-.11-1.4.896-1.419 1.672-.032 3.343-.028 5.015-.001.68.01 1.13.4 1.392 1.042.903 2.222 2.01 4.337 3.398 6.298.37.522.748 1.043 1.285 1.412.593.407 1.046.272 1.325-.39.18-.421.257-.871.296-1.322.132-1.546.148-3.09-.082-4.63-.143-.963-.685-1.585-1.645-1.767-.489-.092-.417-.273-.18-.553.413-.483.8-.781 1.573-.781l5.787-.001c.912.179 1.116.588 1.24 1.507l.005 6.43c-.01.356.179 1.41.817 1.642.512.169.85-.241 1.155-.565 1.388-1.473 2.377-3.21 3.262-5.01.39-.793.728-1.614 1.055-2.437.244-.608.622-.907 1.309-.897l5.572.007c.164 0 .331.001.494.03.939.16 1.196.564.906 1.48-.458 1.44-1.346 2.639-2.215 3.84-.93 1.288-1.924 2.53-2.845 3.822-.847 1.182-.78 1.777.271 2.803Z" fill="#CACACA"/></svg><svg fill="none" viewBox="0 0 50 50" id="social-networks--whatsapp" xmlns="http://www.w3.org/2000/svg"><path d="M25 49.219c13.376 0 24.219-10.843 24.219-24.219C49.219 11.624 38.376.781 25 .781 11.624.781.781 11.624.781 25 .781 38.376 11.624 49.219 25 49.219Z" fill="#30BF39"/><path d="M32.344 27.189c-.313-.157-1.953-1.094-2.266-1.172-.312-.157-.547-.157-.781.156a20.716 20.716 0 0 1-1.094 1.25c-.234.234-.39.234-.703.078-.313-.156-1.406-.547-2.656-1.797-.938-.937-1.64-2.031-1.797-2.422-.156-.312 0-.547.156-.703.156-.156.313-.39.547-.547.234-.156.234-.312.39-.547.157-.234.079-.39 0-.625-.078-.234-.703-1.875-.937-2.578-.234-.703-.547-.547-.703-.625-.234 0-.39-.078-.625-.078-.313 0-.703.156-.938.39-.312.313-1.25 1.095-1.25 2.735s1.094 3.36 1.25 3.516c.157.234 2.188 3.828 5.547 5.312 3.36 1.485 3.36 1.016 3.985 1.016s2.031-.781 2.343-1.484c.313-.782.313-1.485.235-1.563-.156 0-.39-.078-.703-.313Zm-6.25 8.046c-2.188 0-4.219-.625-6.016-1.797l-4.219 1.329 1.407-4.063c-1.328-1.875-2.11-4.14-2.11-6.484a11.003 11.003 0 0 1 11.016-11.016c6.094 0 10.937 4.922 10.937 11.016a11.003 11.003 0 0 1-11.015 11.015Zm0-24.218c-7.266 0-13.203 5.937-13.203 13.203 0 2.422.625 4.765 1.875 6.797l-2.422 7.109 7.344-2.344c1.953 1.094 4.14 1.64 6.406 1.64 7.265 0 13.203-5.937 13.203-13.202 0-7.266-5.86-13.203-13.203-13.203Z" fill="#fff"/></svg></svg>