<svg width="80" height="80" viewBox="0 0 80 80" fill="none" xmlns="http://www.w3.org/2000/svg"><g clip-path="url(#a)" fill="#212133"><path d="M37.91 43.367c0 .31.25.562.56.562h.72a2.687 2.687 0 0 1-.13-1.123h-.59a.561.561 0 0 0-.56.561zM42.353 24.326a1.684 1.684 0 0 0-1.998 1.296l-1.617 10.304a.847.847 0 0 1-1.655.05l-1.981-9.113a1.684 1.684 0 1 0-3.312.6l1.88 10.293a6.12 6.12 0 0 1-.028 2.368 17.104 17.104 0 0 1 1.836-1.571 3.89 3.89 0 0 1 2.346-.797h3.749l2.076-11.427a1.684 1.684 0 0 0-1.296-2.003z"/><path d="M43.122 45.118a2.76 2.76 0 0 1-.976.45c.076.122.143.25.202.38a.561.561 0 0 1-.511.787.561.561 0 0 1-.51-.337 2.245 2.245 0 0 0-2.066-1.347h-.791a1.684 1.684 0 1 1 0-3.367h1.683a2.245 2.245 0 0 0 2.245-2.245v-.562h-4.574c-.607 0-1.198.197-1.683.562-2.2 1.639-4.406 4.08-4.406 6.864a5.983 5.983 0 0 0 1.122 3.496l2.807 3.872c.426.592.625 1.317.56 2.043h9.542c0-1.526-.152-1.122 2.318-5.326a10.164 10.164 0 0 0 1.049-4.215v-2.592l-1.308 2.082a2.582 2.582 0 0 1-4.703-.545z"/><path d="M40.18 42.806a1.414 1.414 0 0 0 1.684 1.684c.813-.18 1.122-.814 1.543-1.532 2.29-3.66 2.206-3.514 2.245-3.626a1.61 1.61 0 0 0-.376-2.245 1.56 1.56 0 0 0-2.133.617l-.151.242c.322.201.52.552.527.931v.562a3.367 3.367 0 0 1-3.339 3.367zM49.022 38.877a1.527 1.527 0 0 0-2.076.562c-.326.527.224-.404-2.576 4.12-.221.348-.294.77-.203 1.172a1.465 1.465 0 0 0 2.722.32l2.582-4.103a1.499 1.499 0 0 0-.449-2.07z"/></g><path fill-rule="evenodd" clip-rule="evenodd" d="M24.693 3.045a40 40 0 1 1 30.614 73.91 40 40 0 0 1-30.614-73.91zm15.664 59.098c12.032 0 21.786-9.754 21.786-21.786 0-12.032-9.754-21.786-21.786-21.786-12.032 0-21.786 9.754-21.786 21.786 0 12.032 9.754 21.786 21.786 21.786z" fill="#3F2AFF"/><defs><clipPath id="a"><path fill="#fff" transform="translate(25 24.286)" d="M0 0h31.429v31.429H0z"/></clipPath></defs></svg>