<svg width="78" height="80" viewBox="0 0 78 80" fill="none" xmlns="http://www.w3.org/2000/svg"><g clip-path="url(#a)"><path fill-rule="evenodd" clip-rule="evenodd" d="M24.007 3.045A37.953 37.953 0 0 1 38.889 0 37.953 37.953 0 0 1 53.77 3.045a38.836 38.836 0 0 1 12.617 8.67 40.095 40.095 0 0 1 8.43 12.978A40.993 40.993 0 0 1 77.777 40c0 10.609-4.097 20.783-11.39 28.284C59.094 75.786 49.203 80 38.888 80a37.953 37.953 0 0 1-14.881-3.045 38.836 38.836 0 0 1-12.617-8.67C4.097 60.782 0 50.608 0 40c0-10.609 4.097-20.783 11.39-28.284a38.835 38.835 0 0 1 12.617-8.671zm15.23 59.098c11.697 0 21.18-9.754 21.18-21.786 0-12.032-9.483-21.786-21.18-21.786-11.699 0-21.181 9.754-21.181 21.786 0 12.032 9.482 21.786 21.18 21.786z" fill="#3F2AFF"/><g clip-path="url(#b)" fill="#212133"><path d="M38.888 43.112v-9.261c-.255.024-.508.065-.764.077h-7.352a.749.749 0 0 0-.737.76v.758H27.82a.749.749 0 0 0-.738.759v4.553c0 .419.33.759.738.759h2.213v.759c0 .419.331.759.738.759h.447l2.966 8.132a1.48 1.48 0 0 0 1.382.976c.394 0 .768-.161 1.037-.45l1.772-1.807c.453-.466.56-1.193.272-1.756l-2.476-5.095h1.96c.253.012.504.053.756.077zM50.573 28.224a.731.731 0 0 0-.356-.314c-.004-.001-.007-.007-.012-.009-.014-.004-.028.003-.042-.001-.067-.02-.133-.043-.207-.043-.05 0-.094.02-.143.03-.028.006-.055.008-.083.017a.73.73 0 0 0-.323.216c-.006.006-.015.007-.02.013a15.45 15.45 0 0 1-9.022 5.5v9.7a15.447 15.447 0 0 1 9.021 5.497c.006.007.017.01.024.02a.72.72 0 0 0 .183.145c.022.014.04.033.062.044a.741.741 0 0 0 .301.067.752.752 0 0 0 .25-.044c.004-.002.007-.008.011-.01a.72.72 0 0 0 .309-.242l.047-.072a.749.749 0 0 0 .12-.391V28.616a.749.749 0 0 0-.12-.392z"/></g></g><defs><clipPath id="a"><path fill="#fff" d="M0 0h77.778v80H0z"/></clipPath><clipPath id="b"><path fill="#fff" transform="translate(27.083 27.857)" d="M0 0h23.611v24.286H0z"/></clipPath></defs></svg>