<svg width="72" height="16" viewBox="0 0 72 16" fill="none" xmlns="http://www.w3.org/2000/svg"><path fill-rule="evenodd" clip-rule="evenodd" d="M10.052 11.404c0 2.513-2.005 4.335-5.19 4.335A6.96 6.96 0 0 1 0 13.56l1.065-1.174c.997.947 2.17 1.867 3.776 1.867 1.785 0 3.708-.998 3.708-2.791C8.549 9.97 7.363 9 4.87 8.234 2.03 7.368.59 6.193.59 3.982.588 1.795 2.442 0 5.086 0c1.974 0 3.21.84 4.411 1.912L8.45 3.072C7.396 2.142 6.392 1.51 5.16 1.51c-1.53 0-3.038.984-3.038 2.4 0 1.283.738 2.1 3.347 2.897 2.39.735 4.583 1.873 4.583 4.597v.001zm12.887-9.958a1.249 1.249 0 1 0 2.403-.475A1.25 1.25 0 0 0 24.19.198c-.69 0-1.25.559-1.25 1.248zm15.61 13.545s.927.752 4.017.752h-.002c3.05 0 5.526-2.227 5.526-5.27 0-3.04-2.474-5.259-5.524-5.259a5.67 5.67 0 0 0-2.511.513V.457h-1.506V14.99zm11.305-4.502A5.516 5.516 0 0 0 55.374 16a5.517 5.517 0 0 0 5.523-5.51 5.516 5.516 0 0 0-5.522-5.51 5.515 5.515 0 0 0-5.521 5.51zm20.18 5.006H72l-4.348-5.169 4.055-4.847h-1.955l-3.08 3.681-3.094-3.681H61.61l4.084 4.853-4.317 5.163h1.954l3.342-3.996 3.36 3.996zM55.389 6.469c-.796 0-1.574.236-2.236.677a4.004 4.004 0 0 0-1.709 4.116 4.015 4.015 0 0 0 3.158 3.154 4.03 4.03 0 0 0 4.13-1.708c.441-.66.676-1.434.676-2.227 0-2.216-1.8-4.012-4.02-4.012zm-12.815.253c-.9.013-1.776.296-2.511.812v6.205c.78.379 1.644.551 2.51.502 2.219 0 4.018-1.547 4.018-3.76 0-2.212-1.8-3.76-4.02-3.76h.002l.001.001zM35.041.457h-1.507v15.036h1.507V.457zm-6.524 0h1.507v15.036h-1.507V.457zm-14.57 9.783l-.004-.005.004-.004v.009zm0 5.253V10.24l5.265 5.255h2.13l-5.27-5.26 4.771-4.764h-2.13l-4.766 4.76V.457H12.44v15.036h1.507zm9.542.002h1.506V5.47h-1.506v10.024z" fill="#fff"/></svg>