<svg width="166" height="27" viewBox="0 0 166 27" fill="none" xmlns="http://www.w3.org/2000/svg"><path d="M37.519 21.813V3.49h4.842v6.806h7.068V3.49h4.842v18.323H49.43v-7.067H42.36v7.067H37.52zM57.139 4.537c0-.628.235-1.152.706-1.57.471-.437 1.065-.655 1.78-.655.716 0 1.309.218 1.78.655.471.418.707.942.707 1.57 0 .61-.236 1.134-.707 1.57-.471.437-1.064.655-1.78.655-.715 0-1.309-.218-1.78-.654-.47-.437-.706-.96-.706-1.57zm.261 17.276V8.202h4.45v13.611H57.4zM65.836 19.745c-1.17-1.291-1.754-2.957-1.754-5 0-2.04.585-3.707 1.754-4.999 1.17-1.291 2.591-1.937 4.267-1.937 1.204 0 2.242.35 3.115 1.047.401.314.715.663.942 1.047h.262V8.202h4.45v18.585H65.915v-3.534h8.507v-3.534h-.262a3.644 3.644 0 0 1-.942.995c-.855.646-1.894.968-3.115.968-1.675 0-3.098-.645-4.267-1.937zm3.612-7.303c-.523.559-.785 1.326-.785 2.304 0 .977.262 1.745.785 2.303.524.559 1.222.838 2.095.838.872 0 1.57-.28 2.093-.838.524-.558.786-1.326.786-2.303 0-.978-.262-1.745-.785-2.304-.524-.558-1.222-.837-2.094-.837-.873 0-1.571.279-2.095.837zM81.477 21.813V3.49h4.45v6.544h.262c.244-.419.558-.785.942-1.1.89-.75 1.928-1.125 3.115-1.125 1.606 0 2.853.489 3.743 1.466.908.96 1.361 2.347 1.361 4.162v8.376H90.9v-7.722c0-.785-.209-1.396-.628-1.832-.419-.436-.995-.654-1.727-.654-.75 0-1.379.279-1.885.837-.489.541-.733 1.265-.733 2.173v7.198h-4.45zM105.173 26.787V8.202h4.45v1.832h.262c.244-.401.576-.768.995-1.1.96-.75 1.98-1.125 3.062-1.125 1.676 0 3.098.663 4.267 1.99 1.169 1.308 1.754 3.045 1.754 5.209 0 2.163-.585 3.909-1.754 5.235-1.169 1.309-2.591 1.963-4.267 1.963-1.099 0-2.12-.366-3.062-1.1a4.015 4.015 0 0 1-.995-1.125h-.262v6.806h-4.45zm5.236-14.292c-.524.593-.786 1.43-.786 2.513 0 1.082.262 1.92.786 2.512.523.594 1.221.89 2.094.89.872 0 1.57-.296 2.094-.89.523-.593.785-1.43.785-2.512s-.262-1.92-.785-2.513c-.524-.594-1.222-.89-2.094-.89-.873 0-1.571.296-2.094.89zM123.275 20.243c-1.169-1.326-1.754-3.072-1.754-5.235 0-2.164.585-3.9 1.754-5.21 1.169-1.326 2.591-1.989 4.267-1.989 1.082 0 2.102.375 3.062 1.126.402.331.733.698.995 1.1h.262V8.201h4.45v13.611h-4.45v-1.832h-.262a4.015 4.015 0 0 1-.995 1.125c-.942.733-1.963 1.1-3.062 1.1-1.676 0-3.098-.654-4.267-1.963zm3.612-7.748c-.523.593-.785 1.43-.785 2.513 0 1.082.262 1.92.785 2.512.524.594 1.222.89 2.094.89.873 0 1.571-.296 2.094-.89.524-.593.786-1.43.786-2.512s-.262-1.92-.786-2.513c-.523-.594-1.221-.89-2.094-.89-.872 0-1.57.296-2.094.89zM138.131 17.363h4.45c.069.262.218.506.445.733.471.471 1.151.707 2.041.707 1.222 0 1.833-.305 1.833-.916 0-.28-.175-.497-.524-.654-.349-.175-.872-.35-1.57-.524-.576-.14-.952-.227-1.126-.262-.175-.035-.541-.13-1.099-.288-.559-.174-.96-.322-1.205-.445-.226-.14-.549-.331-.968-.576-.401-.261-.698-.523-.89-.785-.175-.28-.34-.62-.497-1.02a3.772 3.772 0 0 1-.236-1.336c0-1.151.515-2.137 1.544-2.958 1.03-.82 2.478-1.23 4.346-1.23 2.338 0 4.188.768 5.549 2.304a5.707 5.707 0 0 1 1.126 2.277h-4.319a2.08 2.08 0 0 0-.367-.655c-.401-.436-.977-.654-1.728-.654-1.047 0-1.57.306-1.57.916 0 .297.174.524.523.68.349.158.882.306 1.597.446 1.798.419 3.01.785 3.639 1.1 1.57.767 2.355 1.945 2.355 3.533 0 1.256-.558 2.312-1.675 3.167-1.099.855-2.679 1.283-4.738 1.283-2.53 0-4.458-.803-5.785-2.408a5.331 5.331 0 0 1-1.151-2.435zM152.65 17.363h4.45c.07.262.218.506.445.733.471.471 1.152.707 2.042.707 1.221 0 1.832-.305 1.832-.916 0-.28-.174-.497-.523-.654-.349-.175-.873-.35-1.571-.524a37.01 37.01 0 0 0-1.126-.262c-.174-.035-.541-.13-1.099-.288-.558-.174-.96-.322-1.204-.445-.227-.14-.55-.331-.969-.576-.401-.261-.698-.523-.89-.785-.174-.28-.34-.62-.497-1.02a3.771 3.771 0 0 1-.235-1.336c0-1.151.514-2.137 1.544-2.958 1.03-.82 2.478-1.23 4.345-1.23 2.339 0 4.188.768 5.549 2.304a5.694 5.694 0 0 1 1.126 2.277h-4.319a2.1 2.1 0 0 0-.366-.655c-.402-.436-.978-.654-1.728-.654-1.047 0-1.571.306-1.571.916 0 .297.175.524.524.68.349.158.881.306 1.597.446 1.797.419 3.01.785 3.638 1.1 1.571.767 2.356 1.945 2.356 3.533 0 1.256-.559 2.312-1.675 3.167-1.1.855-2.679 1.283-4.738 1.283-2.531 0-4.459-.803-5.785-2.408a5.343 5.343 0 0 1-1.152-2.435z" fill="#fff"/><path fill-rule="evenodd" clip-rule="evenodd" d="M5.235 5.235v15.706h15.706L5.235 5.235zM0 0v26.176h26.176V0H0z" fill="#FF6E30"/></svg>