<svg width="81" height="79" viewBox="0 0 81 79" fill="none" xmlns="http://www.w3.org/2000/svg"><path fill="#fff" d="M18.136 57.197L0 74.638l4.535 4.36L22.67 61.558z"/><path fill-rule="evenodd" clip-rule="evenodd" d="M44.27 65.77c-16.229 0-29.385-13.087-29.385-29.23 0-16.145 13.156-29.232 29.385-29.232 16.228 0 29.384 13.087 29.384 29.231 0 16.144-13.156 29.232-29.384 29.232zm0 7.309c-20.286 0-36.73-16.36-36.73-36.54S23.983 0 44.27 0C64.555 0 81 16.36 81 36.54S64.555 73.078 44.27 73.078z" fill="#fff"/><path d="M42 24v25h5.995V24H42z" fill="#fff"/><path d="M57.233 34h-25v5.995h25V34z" fill="#fff"/></svg>