<svg width="97" height="22" viewBox="0 0 97 22" fill="none" xmlns="http://www.w3.org/2000/svg"><path d="M1.562 17.803l-1.398-1.98h1.01l.95 1.417.958-1.416h1.003l-1.403 1.98 1.474 2.067H3.153l-1.029-1.515L1.1 19.871H.096l1.466-2.068zM4.254 15.824h.966l.848 2.294c.128.327.214.635.256.922h.03c.023-.134.065-.296.125-.486.06-.193.38-1.103.958-2.73h.957l-1.783 4.585c-.324.842-.865 1.263-1.621 1.263-.196 0-.388-.021-.574-.063v-.68c.134.03.286.044.457.044.427 0 .727-.24.9-.721l.155-.38-1.674-4.048zM13.028 21.302h-.826v-1.43H9.344v1.43h-.818v-2.097h.34c.296-.412.531-.91.705-1.493.175-.586.28-1.215.312-1.888h2.534v3.381h.61v2.097zm-1.482-2.097v-2.723h-.897a7.22 7.22 0 0 1-.302 1.486c-.15.488-.335.9-.554 1.237h1.753zM17.5 17.84c0 .661-.175 1.177-.525 1.548-.349.37-.835.556-1.459.556-.39 0-.734-.085-1.033-.256a1.71 1.71 0 0 1-.69-.735c-.16-.32-.241-.69-.241-1.113 0-.656.173-1.169.52-1.537.347-.368.836-.553 1.467-.553.603 0 1.08.19 1.433.568.352.375.527.883.527 1.522zm-3.036 0c0 .934.356 1.402 1.067 1.402.704 0 1.056-.468 1.056-1.402 0-.925-.354-1.387-1.063-1.387-.372 0-.642.12-.81.359-.167.239-.25.582-.25 1.028zM20.576 17.789v-1.965h.826v1.965l1.606-1.965h.935l-1.64 1.958 1.787 2.09h-.977l-1.711-2.054v2.053h-.826v-2.053l-1.708 2.053h-.973l1.784-2.09-1.637-1.957h.935l1.6 1.965zM26.556 19.944c-.649 0-1.156-.183-1.523-.549-.365-.368-.547-.874-.547-1.518 0-.662.17-1.181.509-1.56.34-.378.805-.567 1.399-.567.55 0 .985.163 1.304.487.32.325.48.771.48 1.34v.464h-2.78c.013.393.122.696.328.908.207.21.497.315.871.315.247 0 .475-.022.686-.066a3.78 3.78 0 0 0 .687-.227v.699c-.216.1-.435.17-.656.212a4.14 4.14 0 0 1-.758.062zm-.162-3.542c-.282 0-.508.086-.679.26-.168.173-.269.425-.302.757h1.893c-.005-.334-.088-.587-.249-.757-.16-.174-.382-.26-.663-.26zM30.865 19.944c-.63 0-1.11-.178-1.44-.534-.327-.359-.49-.872-.49-1.54 0-.681.17-1.205.513-1.57.344-.367.84-.55 1.489-.55.44 0 .836.08 1.188.238l-.268.692c-.375-.142-.684-.212-.928-.212-.721 0-1.082.464-1.082 1.394 0 .454.09.795.268 1.025.181.227.445.34.792.34a2.32 2.32 0 0 0 1.12-.285v.75c-.159.09-.329.155-.51.194a3.108 3.108 0 0 1-.652.058zM36.14 15.824v.673h-1.357v3.374h-.89v-3.374h-1.358v-.673h3.605zM40.563 16.86c0 .477-.288.767-.864.867v.029c.322.037.568.135.74.296a.82.82 0 0 1 .255.626c0 .383-.15.678-.452.886-.299.205-.735.307-1.308.307h-1.99v-4.047h1.982c1.091 0 1.637.345 1.637 1.035zm-.777 1.767c0-.195-.078-.333-.234-.414-.156-.083-.39-.124-.701-.124h-1.022v1.145h1.044c.609 0 .913-.202.913-.607zm-.11-1.695c0-.16-.065-.276-.196-.347-.128-.073-.32-.11-.576-.11h-1.075v.973h.943c.296 0 .521-.036.675-.11.153-.075.23-.21.23-.406zM43.432 19.944c-.649 0-1.157-.183-1.523-.549-.365-.368-.547-.874-.547-1.518 0-.662.17-1.181.509-1.56.34-.378.805-.567 1.399-.567.55 0 .985.163 1.304.487.32.325.479.771.479 1.34v.464h-2.779c.013.393.122.696.328.908.206.21.497.315.871.315.247 0 .475-.022.687-.066.213-.047.442-.122.686-.227v.699c-.216.1-.435.17-.656.212a4.14 4.14 0 0 1-.758.062zm-.162-3.542c-.282 0-.508.086-.679.26-.168.173-.269.425-.302.757h1.893c-.005-.334-.088-.587-.249-.757-.16-.174-.382-.26-.663-.26zM46.946 15.824v1.624h1.964v-1.624h.886v4.047h-.886v-1.745h-1.964v1.745h-.886v-4.047h.886zM51.953 15.824v1.624h1.964v-1.624h.886v4.047h-.886v-1.745h-1.964v1.745h-.886v-4.047h.886zM58.683 19.871l-.178-.563h-.03c-.2.246-.403.414-.607.505-.203.087-.465.131-.784.131-.41 0-.73-.107-.961-.322-.23-.214-.343-.518-.343-.911 0-.417.16-.732.478-.944.32-.212.806-.328 1.46-.348l.72-.022v-.216c0-.258-.063-.451-.189-.578-.123-.13-.315-.194-.577-.194-.213 0-.418.03-.614.092a4.73 4.73 0 0 0-.566.215l-.286-.614c.226-.115.473-.202.742-.26.27-.061.523-.092.762-.092.53 0 .93.113 1.199.337.271.224.407.577.407 1.058v2.726h-.633zm-1.32-.585c.322 0 .58-.087.773-.26.196-.176.294-.421.294-.736v-.351l-.535.022c-.418.014-.722.083-.913.205-.188.12-.282.303-.282.552 0 .18.055.321.165.421.111.098.277.147.498.147zM60.979 19.871h-.992l1.161-1.658a1.253 1.253 0 0 1-.663-.417 1.169 1.169 0 0 1-.241-.75c0-.383.14-.682.422-.897.281-.217.666-.325 1.154-.325h1.9v4.047h-.89v-1.559h-.84l-1.011 1.56zm.128-2.818c0 .208.08.364.241.469.164.102.382.153.656.153h.826v-1.2h-.965c-.241 0-.429.05-.562.15a.507.507 0 0 0-.196.428zM69.688 15.824v.673h-1.81v3.374h-.885v-4.047h2.695zM73.1 19.871l-.177-.563h-.03c-.201.246-.403.414-.607.505-.204.087-.465.131-.784.131-.41 0-.73-.107-.962-.322-.228-.214-.343-.518-.343-.911 0-.417.16-.732.48-.944.318-.212.805-.328 1.458-.348l.72-.022v-.216c0-.258-.063-.451-.188-.578-.123-.13-.316-.194-.577-.194-.214 0-.419.03-.615.092a4.737 4.737 0 0 0-.565.215l-.287-.614c.227-.115.474-.202.743-.26.269-.061.523-.092.762-.092.53 0 .93.113 1.199.337.271.224.407.577.407 1.058v2.726H73.1zm-1.32-.585c.323 0 .58-.087.774-.26.196-.176.294-.421.294-.736v-.351l-.536.022c-.417.014-.721.083-.912.205-.189.12-.283.303-.283.552 0 .18.055.321.166.421.11.098.277.147.498.147zM78.398 19.871h-.894v-3.374h-1.15c-.07.869-.166 1.547-.286 2.035-.118.488-.274.844-.468 1.068a.934.934 0 0 1-.746.337c-.194 0-.356-.027-.487-.08v-.674a.804.804 0 0 0 .28.051c.256 0 .457-.279.602-.838.149-.56.264-1.418.347-2.572h2.802v4.047zM81.49 19.944c-.65 0-1.157-.183-1.524-.549-.364-.368-.546-.874-.546-1.518 0-.662.17-1.181.508-1.56.34-.378.806-.567 1.4-.567.55 0 .985.163 1.304.487.319.325.479.771.479 1.34v.464h-2.78c.013.393.123.696.329.908.206.21.496.315.87.315.247 0 .476-.022.687-.066a3.78 3.78 0 0 0 .686-.227v.699c-.216.1-.435.17-.656.212a4.14 4.14 0 0 1-.758.062zm-.163-3.542c-.281 0-.507.086-.678.26-.169.173-.27.425-.302.757h1.893c-.005-.334-.088-.587-.25-.757-.16-.174-.381-.26-.663-.26zM86.233 19.944c-.528 0-.938-.184-1.23-.552h-.052c.035.341.052.549.052.622v1.658h-.886v-5.848h.717c.02.075.061.256.124.541h.045c.277-.41.692-.615 1.245-.615.52 0 .924.183 1.214.55.291.365.437.879.437 1.54s-.148 1.177-.445 1.548c-.294.37-.701.556-1.221.556zm-.216-3.491c-.351 0-.609.1-.772.3-.161.2-.242.52-.242.959v.128c0 .493.08.85.242 1.072.16.22.423.33.788.33a.806.806 0 0 0 .708-.366c.166-.244.25-.592.25-1.043 0-.454-.084-.797-.25-1.029-.163-.234-.404-.351-.724-.351zM90.75 19.944c-.65 0-1.157-.183-1.524-.549-.364-.368-.547-.874-.547-1.518 0-.662.17-1.181.51-1.56.339-.378.805-.567 1.398-.567.55 0 .986.163 1.305.487.319.325.479.771.479 1.34v.464h-2.78c.013.393.123.696.329.908.206.21.496.315.87.315.247 0 .476-.022.687-.066a3.78 3.78 0 0 0 .686-.227v.699c-.216.1-.435.17-.656.212a4.14 4.14 0 0 1-.758.062zm-.163-3.542c-.281 0-.508.086-.678.26-.169.173-.27.425-.302.757H91.5c-.005-.334-.088-.587-.25-.757-.16-.174-.381-.26-.663-.26zM93.803 19.871h-.991l1.16-1.658a1.252 1.252 0 0 1-.663-.417 1.168 1.168 0 0 1-.24-.75c0-.383.14-.682.421-.897.282-.217.666-.325 1.154-.325h1.9v4.047h-.89v-1.559h-.84l-1.01 1.56zm.129-2.818c0 .208.08.364.24.469.164.102.383.153.657.153h.826v-1.2h-.966c-.241 0-.428.05-.561.15a.507.507 0 0 0-.197.428zM0 11.73h6.525c2.573 0 3.89-1.13 3.89-3.284v-.033c0-1.6-.837-2.573-2.45-2.85v-.15c1.351-.252 2.058-1.106 2.058-2.497v-.042C10.023.98 8.793 0 6.385 0H0v11.73zm2.573-6.929V1.66h3.045c1.23 0 1.84.52 1.84 1.542v.033c0 1.04-.61 1.567-1.84 1.567H2.573zm0 5.262V6.326h3.123c1.352 0 2.024.62 2.024 1.835v.034c0 1.24-.672 1.868-2.024 1.868H2.573zM12.84 0v11.73h2.538V0h-2.539zM20.689 11.948c2.05 0 3.541-.88 4.091-2.37l.174.041c-.33 1.626.018 2.33 2.024 2.33.253 0 .506-.026.716-.06l.296-1.449-.436-.008c-.48-.008-.62-.117-.62-.712V5.69c0-1.995-1.378-2.95-4.317-2.95-3.123 0-4.702 1.181-4.571 3.226l2.503.201c-.104-1.349.611-1.96 2.015-1.96 1.256 0 1.85.443 1.85 1.457v.495l-2.478.435c-2.477.444-4.117 1.199-4.117 3.042v.025c0 1.458 1.03 2.287 2.87 2.287zm1.012-1.625c-.855 0-1.317-.293-1.317-.897V9.41c0-.863.81-1.215 2.416-1.517l1.614-.302v.411c0 1.349-1.265 2.321-2.713 2.321zM30.126 11.73h2.539V7.643c0-1.978.968-3.201 2.573-3.201 1.195 0 1.788.595 1.788 1.734v5.556h2.539V5.589c0-1.844-1.126-2.816-3.22-2.816-1.9 0-3.2.805-3.968 2.48l-.175-.075c.35-.997.471-1.592.471-2.245h-2.547v8.798zM47.118 11.94c2.992 0 4.666-1.156 4.92-3.393l-2.565-.277c-.105 1.408-.907 2.12-2.347 2.12-1.613 0-2.45-.972-2.45-2.89v-.411c0-1.877.845-2.824 2.424-2.824 1.457 0 2.216.78 2.33 2.338l2.529-.277c-.2-2.371-1.814-3.603-4.85-3.603-3.297 0-5.033 1.55-5.033 4.516v.11c0 3.016 1.718 4.591 5.042 4.591zM54.566 11.73h2.538V7.643c0-1.978.96-3.193 2.574-3.193 1.195 0 1.788.587 1.788 1.726v5.556h2.538V5.589c0-1.844-1.134-2.816-3.218-2.816-1.92 0-3.21.805-3.97 2.472l-.183-.067c.34-.938.463-1.634.471-2.463V0h-2.538v11.73zM69.272 11.948c2.05 0 3.542-.88 4.091-2.37l.175.041c-.332 1.626.017 2.33 2.023 2.33.253 0 .506-.026.716-.06l.296-1.449-.436-.008c-.48-.008-.62-.117-.62-.712V5.69c0-1.995-1.377-2.95-4.317-2.95-3.123 0-4.702 1.181-4.57 3.226l2.503.201c-.105-1.349.61-1.96 2.015-1.96 1.256 0 1.849.443 1.849 1.457v.495l-2.477.435c-2.478.444-4.118 1.199-4.118 3.042v.025c0 1.458 1.03 2.287 2.87 2.287zm1.012-1.625c-.855 0-1.317-.293-1.317-.897V9.41c0-.863.811-1.215 2.416-1.517l1.614-.302v.411c0 1.349-1.265 2.321-2.713 2.321zM78.71 11.73h2.538V8.053c0-2.296.741-3.142 2.678-3.276l1.247-.092-.296-2.028c-2.05.151-3.001.771-3.943 2.598l-.166-.076c.41-1.173.506-1.642.489-2.245h-2.548v8.798zM90.781 11.89c1.884 0 3.114-.838 3.733-2.355l.184.059c-.297.922-.454 1.65-.463 2.137H96.8V0h-2.538v2.388c0 .922.13 1.667.445 2.681l-.175.067c-.62-1.508-1.858-2.38-3.75-2.38-2.618 0-3.996 1.534-3.996 4.467v.21c0 2.924 1.378 4.457 3.995 4.457zm.96-1.508c-1.57 0-2.39-.964-2.39-2.866v-.385c0-1.91.82-2.883 2.39-2.883 1.64 0 2.52 1.022 2.52 2.924v.302c0 1.894-.88 2.908-2.52 2.908z" fill="#fff"/></svg>