<svg width="50" height="50" viewBox="0 0 50 50" fill="none" xmlns="http://www.w3.org/2000/svg"><path d="M20.215 25a4.785 4.785 0 1 0 9.57 0 4.785 4.785 0 0 0-9.57 0z" fill="#CACACA"/><path d="M13.81 16.533a4.448 4.448 0 0 1 1.073-1.65 4.445 4.445 0 0 1 1.65-1.074c.506-.197 1.266-.43 2.666-.494 1.514-.07 1.968-.084 5.8-.084 3.834 0 4.288.014 5.802.084 1.4.064 2.16.297 2.665.494.624.23 1.188.597 1.65 1.074a4.45 4.45 0 0 1 1.075 1.65c.197.506.43 1.266.494 2.666.07 1.514.084 1.968.084 5.801s-.015 4.287-.084 5.801c-.064 1.4-.297 2.16-.494 2.665a4.45 4.45 0 0 1-1.074 1.651 4.445 4.445 0 0 1-1.65 1.074c-.506.197-1.266.43-2.666.494-1.514.07-1.967.084-5.8.084-3.835 0-4.288-.015-5.802-.084-1.4-.064-2.16-.297-2.665-.494a4.754 4.754 0 0 1-2.725-2.725c-.196-.505-.43-1.265-.494-2.665-.07-1.514-.084-1.968-.084-5.8 0-3.834.015-4.288.084-5.802.064-1.4.297-2.16.494-2.666zM25 32.371a7.371 7.371 0 1 0 0-14.743 7.371 7.371 0 0 0 0 14.743zM17.337 19.06a1.723 1.723 0 1 0 0-3.445 1.723 1.723 0 0 0 0 3.445z" fill="#CACACA"/><path d="M25 0c13.805 0 25 11.195 25 25S38.805 50 25 50 0 38.805 0 25 11.195 0 25 0zM10.731 30.919c.07 1.528.313 2.571.667 3.484a7.34 7.34 0 0 0 4.199 4.199c.913.355 1.956.597 3.484.667 1.531.07 2.02.087 5.919.087 3.899 0 4.387-.017 5.919-.087 1.527-.07 2.571-.313 3.484-.667a7.033 7.033 0 0 0 2.543-1.656 7.035 7.035 0 0 0 1.655-2.543c.355-.913.598-1.956.668-3.484.07-1.531.087-2.02.087-5.919 0-3.899-.017-4.388-.087-5.919-.07-1.528-.312-2.571-.667-3.484a7.033 7.033 0 0 0-1.656-2.543 7.032 7.032 0 0 0-2.543-1.656c-.913-.354-1.956-.597-3.484-.667-1.531-.07-2.02-.086-5.919-.086-3.899 0-4.388.016-5.919.087-1.528.069-2.571.312-3.484.666a7.038 7.038 0 0 0-2.543 1.656 7.033 7.033 0 0 0-1.656 2.543c-.355.913-.597 1.956-.667 3.484-.07 1.531-.086 2.02-.086 5.919 0 3.899.016 4.388.086 5.919z" fill="#CACACA"/></svg>