<svg width="50" height="50" viewBox="0 0 50 50" fill="none" xmlns="http://www.w3.org/2000/svg">
<path d="M25 50C38.8071 50 50 38.8071 50 25C50 11.1929 38.8071 0 25 0C11.1929 0 0 11.1929 0 25C0 38.8071 11.1929 50 25 50Z" fill="url(#paint0_linear_136320_1441)"/>
<path fill-rule="evenodd" clip-rule="evenodd" d="M11.3166 24.7364L25.8961 18.4564C32.8389 15.5686 34.2815 15.067 35.2218 15.0505C35.4287 15.0468 35.8911 15.0981 36.1906 15.3411C36.4436 15.5463 36.5131 15.8236 36.5464 16.0181C36.5798 16.2126 36.6212 16.656 36.5882 17.0023C36.212 20.9553 34.584 30.5485 33.7558 34.976C33.4053 36.8495 32.7158 37.4777 32.0473 37.5391C30.5955 37.6727 29.4931 36.5796 28.0869 35.6579L22.5077 31.9103C20.0394 30.2838 21.6395 29.3898 23.0462 27.9288C23.4143 27.5463 29.811 21.7281 29.9347 21.2003C29.9497 21.1343 29.9646 20.8883 29.8184 20.7583C29.6723 20.6283 29.4564 20.6733 29.3008 20.7081C29.0801 20.7582 25.5651 23.0815 18.7557 27.6781C17.7579 28.3633 16.8542 28.6971 16.0445 28.6796C15.1519 28.6603 13.4348 28.1749 12.1584 27.76C10.5927 27.2511 9.34838 26.982 9.45678 26.1177C9.51318 25.6675 10.1331 25.2072 11.3166 24.7365L11.3166 24.7364Z" fill="white"/>
<defs>
<linearGradient id="paint0_linear_136320_1441" x1="25" y1="0" x2="25" y2="49.6292" gradientUnits="userSpaceOnUse">
<stop stop-color="#2AABEE"/>
<stop offset="1" stop-color="#229ED9"/>
</linearGradient>
</defs>
</svg>
