<svg width="50" height="50" viewBox="0 0 50 50" fill="none" xmlns="http://www.w3.org/2000/svg"><path d="M25 50c13.807 0 25-11.193 25-25S38.807 0 25 0 0 11.193 0 25s11.193 25 25 25z" fill="url(#a)"/><path fill-rule="evenodd" clip-rule="evenodd" d="M11.317 24.736l14.58-6.28c6.942-2.887 8.385-3.389 9.325-3.405.207-.004.67.047.969.29.253.205.322.483.355.677.034.195.075.638.042.984-.376 3.953-2.004 13.547-2.832 17.974-.35 1.873-1.04 2.502-1.709 2.563-1.451.134-2.554-.96-3.96-1.881l-5.58-3.748c-2.468-1.626-.867-2.52.54-3.981.367-.383 6.764-6.2 6.888-6.729.015-.066.03-.312-.117-.442-.146-.13-.362-.085-.517-.05-.22.05-3.736 2.373-10.545 6.97-.998.685-1.902 1.02-2.712 1.002-.892-.02-2.61-.505-3.886-.92-1.565-.509-2.81-.778-2.701-1.642.056-.45.676-.91 1.86-1.381z" fill="#fff"/><defs><linearGradient id="a" x1="25" x2="25" y2="49.629" gradientUnits="userSpaceOnUse"><stop stop-color="#2AABEE"/><stop offset="1" stop-color="#229ED9"/></linearGradient></defs></svg>