<svg width="50" height="50" viewBox="0 0 50 50" fill="none" xmlns="http://www.w3.org/2000/svg"><path d="M25 0C11.193 0 0 11.193 0 25s11.193 25 25 25 25-11.193 25-25S38.807 0 25 0zm12.681 27.704c1.166 1.138 2.398 2.209 3.444 3.465.464.555.9 1.13 1.233 1.776.475.921.046 1.931-.778 1.986l-5.122-.001c-1.323.11-2.376-.424-3.263-1.328-.709-.721-1.366-1.491-2.048-2.236-.279-.306-.573-.594-.922-.82-.699-.455-1.305-.316-1.705.414-.408.742-.501 1.564-.54 2.39-.056 1.208-.42 1.524-1.632 1.58-2.589.122-5.046-.271-7.33-1.577-2.013-1.151-3.573-2.776-4.931-4.616-2.646-3.587-4.672-7.523-6.492-11.573-.41-.912-.11-1.4.896-1.419 1.672-.032 3.343-.028 5.015-.001.68.01 1.13.4 1.392 1.042.903 2.222 2.01 4.337 3.398 6.298.37.522.748 1.043 1.285 1.412.593.407 1.046.272 1.325-.39.18-.421.257-.871.296-1.322.132-1.546.148-3.09-.082-4.63-.143-.963-.685-1.585-1.645-1.767-.489-.092-.417-.273-.18-.553.413-.483.8-.781 1.573-.781l5.787-.001c.912.179 1.116.588 1.24 1.507l.005 6.43c-.01.356.179 1.41.817 1.642.512.169.85-.241 1.155-.565 1.388-1.473 2.377-3.21 3.262-5.01.39-.793.728-1.614 1.055-2.437.244-.608.622-.907 1.309-.897l5.572.007c.164 0 .331.001.494.03.939.16 1.196.564.906 1.48-.458 1.44-1.346 2.639-2.215 3.84-.93 1.288-1.924 2.53-2.845 3.822-.847 1.182-.78 1.777.271 2.803z" fill="#CACACA"/></svg>