<svg width="50" height="50" viewBox="0 0 50 50" fill="none" xmlns="http://www.w3.org/2000/svg"><path d="M25 49.219c13.376 0 24.219-10.843 24.219-24.219C49.219 11.624 38.376.781 25 .781 11.624.781.781 11.624.781 25 .781 38.376 11.624 49.219 25 49.219z" fill="#30BF39"/><path d="M32.344 27.189c-.313-.157-1.953-1.094-2.266-1.172-.312-.157-.547-.157-.781.156a20.716 20.716 0 0 1-1.094 1.25c-.234.234-.39.234-.703.078-.313-.156-1.406-.547-2.656-1.797-.938-.937-1.64-2.031-1.797-2.422-.156-.312 0-.547.156-.703.156-.156.313-.39.547-.547.234-.156.234-.312.39-.547.157-.234.079-.39 0-.625-.078-.234-.703-1.875-.937-2.578-.234-.703-.547-.547-.703-.625-.234 0-.39-.078-.625-.078-.313 0-.703.156-.938.39-.312.313-1.25 1.095-1.25 2.735s1.094 3.36 1.25 3.516c.157.234 2.188 3.828 5.547 5.312 3.36 1.485 3.36 1.016 3.985 1.016s2.031-.781 2.343-1.484c.313-.782.313-1.485.235-1.563-.156 0-.39-.078-.703-.313zm-6.25 8.046c-2.188 0-4.219-.625-6.016-1.797l-4.219 1.329 1.407-4.063c-1.328-1.875-2.11-4.14-2.11-6.484a11.003 11.003 0 0 1 11.016-11.016c6.094 0 10.937 4.922 10.937 11.016a11.003 11.003 0 0 1-11.015 11.015zm0-24.218c-7.266 0-13.203 5.937-13.203 13.203 0 2.422.625 4.765 1.875 6.797l-2.422 7.109 7.344-2.344c1.953 1.094 4.14 1.64 6.406 1.64 7.265 0 13.203-5.937 13.203-13.202 0-7.266-5.86-13.203-13.203-13.203z" fill="#fff"/></svg>